<svg xmlns="http://www.w3.org/2000/svg" width="1000" height="1000" viewBox="0 0 1000 1000"><g fill="none" fill-rule="evenodd"><path fill="#000" fill-rule="nonzero" d="M279 624.607v-43.956h86.792l28.266-162.837H308v-44.955h93.75l23-140.859h53.173l-24 140.859H588.75l23-140.859h53.132l-23 140.859H722v44.955h-87.792l-28.266 162.837H693v43.956h-93.764l-24 143.856h-52.138l24-143.856H412.236l-24 143.856h-52.098l23-143.856zm302.126-206.793h-135.87l-26.382 162.837h135.87z"/><path fill="#455a64" fill-opacity=".002" d="M500.345 1000c178.456 0 343.346-95.295 432.574-250s89.229-345.295 0-500C843.691 95.295 678.801 0 500.345 0S156.998 95.295 67.77 250s-89.228 345.295 0 500 254.118 250 432.575 250v-47.97c-161.333 0-310.41-86.163-391.085-226.015-80.676-139.853-80.676-312.177 0-452.03S339.012 47.97 500.345 47.97s310.409 86.163 391.085 226.015c80.675 139.853 80.675 312.177 0 452.03C810.754 865.867 661.678 952.03 500.345 952.03z"/><path fill="#ce001b" d="M500.345 1000c152.006 0 295.756-69.28 390.532-188.247l-37.472-29.908c-85.69 107.546-215.633 170.185-353.06 170.185z"/><path fill="#780011" d="M890.877 811.753c94.776-118.967 130.275-274.668 96.453-423.008l-46.724 10.665c30.578 134.114-1.512 274.889-87.201 382.435z"/><path fill="#6d7096" d="M987.33 388.745c-33.822-148.34-133.317-273.21-270.265-339.225l-20.79 43.21c123.824 59.687 213.752 172.565 244.33 306.68z"/><path fill="#60bbd5" d="M717.065 49.52c-136.948-66.014-296.493-66.014-433.44 0l20.79 43.21c123.825-59.686 268.035-59.686 391.86 0z"/><path fill="#0f99be" d="M283.624 49.52C146.676 115.535 47.182 240.406 13.36 388.745l46.725 10.665C90.662 265.295 180.59 152.417 304.415 92.73z"/><path fill="#8c9d26" d="M13.36 388.745c-33.823 148.34 1.677 304.041 96.453 423.008l37.471-29.908C61.595 674.299 29.506 533.524 60.084 399.41z"/><path fill="#fcd813" d="M109.813 811.753C204.589 930.72 348.338 1000 500.345 1000v-47.97c-137.427 0-267.371-62.639-353.06-170.185z"/></g></svg>