<svg xmlns="http://www.w3.org/2000/svg" width="248" height="160" viewBox="0 0 248 160"><path fill="#5c2d90" fill-rule="evenodd" d="m139.895 149.846-5.832-20.746-1.789-6.26v30.48l-6.843 3.12v-51.787l7.62-3.474 5.133 20.91 1.556 6.522v-30.48l6.765-3.086v51.787zm19.207-46.468-1.944 22.348 3.344-1.525zm2.488 36.579-.467-8.652-4.743 2.163-.778 9.219-7.232 3.296 6.144-54.587 9.1-4.148 6.141 48.986zm21.151-53.575v43.933l-8.01 3.651V90.033l-5.833 2.66v-7.854l19.676-8.97v7.855zm8.163 40.212V74.807l8.011-3.652v51.788zm23.718-53.502c0-1.322-.777-1.745-1.944-1.213-1.166.531-1.945 1.663-1.945 2.985v33.592c0 1.323.779 1.745 1.945 1.214 1.167-.532 1.944-1.664 1.944-2.986zm-1.944 44.354c-5.6 2.551-10.11.41-10.11-5.812V79.131c0-6.143 4.51-12.476 10.11-15.027 5.677-2.588 10.109-.332 10.109 5.81v32.503c0 6.221-4.432 12.441-10.11 15.03m28.228-13.646-5.833-20.746-1.789-6.26v30.481l-6.843 3.12v-51.79l7.621-3.474 5.132 20.91 1.556 6.523V52.084L247.516 49v51.786zM11.51 108.882c0-1.556-.467-1.965-1.4-1.54l-2.1.957v17.573l2.1-.957c.933-.425 1.4-1.26 1.4-2.815zm-.622 22.444-2.878 1.311v20.14L0 156.43v-51.788l10.888-4.963c4.121-1.88 8.321-1.46 8.321 5.46v13.14c0 6.844-4.2 11.167-8.321 13.047m22.939-32.618c0-1.556-.466-1.964-1.4-1.538l-2.021.92v16.018l2.022-.921c.933-.425 1.399-1.182 1.399-2.815zm2.178 41.308c-1.245.568-1.944-4.168-1.944-7.122v-11.276c0-1.244-.622-2.05-1.712-1.553l-1.943.886v21.617l-8.011 3.653V94.434l10.81-4.928c3.966-1.81 8.399-1.496 8.399 5.268v11.82c0 2.41-1.322 5.034-3.422 7.39 2.1.444 3.655 1.679 3.655 4.245v10.498c0 3.265.467 5.697 1.01 7.936v.233zM57.078 87.72c0-1.322-.777-1.745-1.944-1.214s-1.945 1.664-1.945 2.986v33.592c0 1.322.778 1.745 1.945 1.213 1.167-.53 1.944-1.664 1.944-2.985zm-1.944 44.353c-5.6 2.552-10.11.411-10.11-5.81V93.76c0-6.143 4.51-12.476 10.11-15.029 5.677-2.588 10.11-.33 10.11 5.811v32.504c0 6.221-4.433 12.44-10.11 15.028m28.85-13.929-.856-2.33c-1.088 2.828-3.344 5.022-5.676 6.086-5.445 2.48-8.944.11-8.944-6.11V82.82c0-5.599 4.278-12.136 10.032-14.76 5.755-2.623 9.72.157 9.72 5.756v9.564l-7.465 3.404V76.91c0-1.244-.7-1.78-2.099-1.143-1.322.603-2.179 1.848-2.179 3.092v33.981c0 1.323.857 1.865 2.18 1.262 1.398-.639 2.176-1.926 2.176-3.248V100.28l-2.022.921v-6.22l9.798-4.468v25.505zm19.518-51.198c0-1.556-.467-1.964-1.4-1.539l-2.021.922v16.018l2.022-.922c.932-.426 1.399-1.182 1.399-2.815zm2.178 41.308c-1.245.567-1.945-4.169-1.945-7.122V89.857c0-1.244-.622-2.05-1.711-1.554l-1.943.886v21.617l-8.011 3.652V62.671l10.81-4.928c3.966-1.807 8.398-1.496 8.398 5.27V74.83c0 2.41-1.321 5.035-3.422 7.393 2.1.441 3.656 1.678 3.656 4.242v10.498c0 3.266.467 5.697 1.01 7.938v.232zm9.407-4.288V52.178l16.799-7.657v7.465l-8.788 4.005v14.152l5.832-2.658v7.076l-5.832 2.658v15.396l8.788-4.005v7.698zm28.773-12.34c-6.223 2.838-10.032.687-10.032-6.233V79.95l7-3.191v6.064c0 1.867.853 2.72 2.642 1.906 1.711-.78 2.567-2.336 2.567-4.281 0-4.665-1.866-7.47-4.899-11.296-3.033-3.438-7.155-8.713-7.155-14.701 0-6.454 3.344-13.188 10.343-16.38 5.443-2.48 9.098-.18 9.098 6.662v5.677l-6.92 3.155V47.11c0-1.711-.934-2.218-2.178-1.651-1.322.603-2.41 1.954-2.41 3.742 0 5.987 1.788 7.272 5.053 11.537 3.422 4.272 6.845 8.856 6.845 14.92 0 8.087-4.9 13.664-9.954 15.968m22.006-10.03c-6.222 2.836-10.032.685-10.032-6.236v-5.443l6.999-3.19v6.064c0 1.867.855 2.721 2.643 1.906 1.711-.78 2.567-2.336 2.567-4.28 0-4.666-1.866-7.47-4.899-11.297-3.033-3.439-7.155-8.713-7.155-14.7 0-6.455 3.344-13.189 10.343-16.38 5.444-2.482 9.098-.182 9.098 6.661v5.677l-6.92 3.154v-6.454c0-1.71-.934-2.217-2.178-1.65-1.321.603-2.41 1.954-2.41 3.742 0 5.987 1.789 7.272 5.054 11.537 3.422 4.272 6.844 8.856 6.844 14.92 0 8.087-4.9 13.664-9.954 15.968m13.063-6.732V23.077l8.01-3.652v51.787zm24.806-11.309-7.777 3.545-6.92-48.632 8.01-3.65 3.032 32.441 3.188-35.278 7.465-3.404zm9.02-4.111V7.657L229.553 0v7.465l-8.788 4.005v14.152l5.832-2.659v7.076l-5.832 2.659v15.396l8.788-4.005v7.698zM70.177 130.316l50.345-24.37-.092 53.837-16.504-29.467z"/></svg>